<?xml version="1.0" encoding="UTF-8"?>
<svg version="1.1" xmlns="http://www.w3.org/2000/svg" width="1024" height="1024">
<path d="M0 0 C0.97953557 -0.00241442 1.95907115 -0.00482883 2.96828961 -0.00731641 C6.25336179 -0.01295611 9.53823975 -0.00428822 12.82330322 0.00431824 C15.17706861 0.00324545 17.53083374 0.00130682 19.88459778 -0.00143433 C26.27881906 -0.00628528 32.67297064 0.00137541 39.06718349 0.01151872 C45.07230712 0.01940289 51.07742758 0.01868131 57.08255497 0.01824339 C68.97710695 0.01774294 80.87163204 0.02690114 92.76617432 0.04142761 C104.31728607 0.05552741 115.86837415 0.06259783 127.41949463 0.06193542 C128.13150755 0.06189547 128.84352047 0.06185551 129.57710955 0.06181435 C130.2878741 0.06177399 130.99863866 0.06173364 131.73094153 0.06169206 C144.2074345 0.06103794 156.68391798 0.06615111 169.16040802 0.07448387 C174.47939428 0.07802366 179.79837586 0.0798481 185.11736298 0.08037758 C191.37175527 0.08137838 197.62612249 0.08745334 203.88050652 0.09754372 C206.18282099 0.10047677 208.48513834 0.10169247 210.78745461 0.10111618 C213.91570321 0.10062925 217.04388043 0.10624374 220.17211914 0.11352539 C221.09573234 0.11197679 222.01934555 0.11042819 222.97094703 0.10883266 C229.21791346 0.13305934 229.21791346 0.13305934 230.33209229 1.24723816 C231.84678677 1.4791668 233.3696379 1.65939054 234.89459229 1.80973816 C235.72088135 1.89352722 236.54717041 1.97731628 237.39849854 2.06364441 C238.03658447 2.12423035 238.67467041 2.18481628 239.33209229 2.24723816 C239.33209229 2.90723816 239.33209229 3.56723816 239.33209229 4.24723816 C241.31209229 4.24723816 243.29209229 4.24723816 245.33209229 4.24723816 C245.33209229 4.90723816 245.33209229 5.56723816 245.33209229 6.24723816 C246.41490479 6.18536316 246.41490479 6.18536316 247.51959229 6.12223816 C250.53938598 6.25645121 252.60144958 6.99894435 255.33209229 8.24723816 C255.33209229 8.90723816 255.33209229 9.56723816 255.33209229 10.24723816 C255.99209229 10.24723816 256.65209229 10.24723816 257.33209229 10.24723816 C257.33209229 10.90723816 257.33209229 11.56723816 257.33209229 12.24723816 C258.65209229 12.24723816 259.97209229 12.24723816 261.33209229 12.24723816 C261.33209229 12.90723816 261.33209229 13.56723816 261.33209229 14.24723816 C262.65209229 14.24723816 263.97209229 14.24723816 265.33209229 14.24723816 C265.33209229 14.90723816 265.33209229 15.56723816 265.33209229 16.24723816 C265.99209229 16.24723816 266.65209229 16.24723816 267.33209229 16.24723816 C267.33209229 16.90723816 267.33209229 17.56723816 267.33209229 18.24723816 C267.99209229 18.24723816 268.65209229 18.24723816 269.33209229 18.24723816 C269.33209229 18.90723816 269.33209229 19.56723816 269.33209229 20.24723816 C269.99209229 20.24723816 270.65209229 20.24723816 271.33209229 20.24723816 C271.33209229 20.90723816 271.33209229 21.56723816 271.33209229 22.24723816 C271.99209229 22.24723816 272.65209229 22.24723816 273.33209229 22.24723816 C273.33209229 22.90723816 273.33209229 23.56723816 273.33209229 24.24723816 C273.99209229 24.24723816 274.65209229 24.24723816 275.33209229 24.24723816 C275.33209229 24.90723816 275.33209229 25.56723816 275.33209229 26.24723816 C275.99209229 26.24723816 276.65209229 26.24723816 277.33209229 26.24723816 C277.33209229 26.90723816 277.33209229 27.56723816 277.33209229 28.24723816 C277.99209229 28.24723816 278.65209229 28.24723816 279.33209229 28.24723816 C279.33209229 28.90723816 279.33209229 29.56723816 279.33209229 30.24723816 C279.99209229 30.24723816 280.65209229 30.24723816 281.33209229 30.24723816 C281.33209229 31.56723816 281.33209229 32.88723816 281.33209229 34.24723816 C281.99209229 34.24723816 282.65209229 34.24723816 283.33209229 34.24723816 C283.33209229 34.90723816 283.33209229 35.56723816 283.33209229 36.24723816 C283.99209229 36.24723816 284.65209229 36.24723816 285.33209229 36.24723816 C285.33209229 37.56723816 285.33209229 38.88723816 285.33209229 40.24723816 C285.99209229 40.24723816 286.65209229 40.24723816 287.33209229 40.24723816 C287.33209229 41.56723816 287.33209229 42.88723816 287.33209229 44.24723816 C287.99209229 44.24723816 288.65209229 44.24723816 289.33209229 44.24723816 C289.33209229 45.56723816 289.33209229 46.88723816 289.33209229 48.24723816 C289.99209229 48.24723816 290.65209229 48.24723816 291.33209229 48.24723816 C291.33209229 49.56723816 291.33209229 50.88723816 291.33209229 52.24723816 C291.99209229 52.24723816 292.65209229 52.24723816 293.33209229 52.24723816 C293.33209229 54.22723816 293.33209229 56.20723816 293.33209229 58.24723816 C293.99209229 58.24723816 294.65209229 58.24723816 295.33209229 58.24723816 C295.39267822 59.1018866 295.45326416 59.95653503 295.51568604 60.83708191 C295.64136963 62.49417175 295.64136963 62.49417175 295.76959229 64.18473816 C295.85080322 65.2868866 295.93201416 66.38903503 296.01568604 67.52458191 C296.03627312 70.15833718 296.03627312 70.15833718 297.33209229 71.24723816 C297.42975383 72.73191548 297.45764707 74.22123581 297.45793343 75.7091217 C297.46184505 77.16375918 297.46184505 77.16375918 297.46583569 78.64778328 C297.46248961 80.26491628 297.46248961 80.26491628 297.45907593 81.91471863 C297.46063592 83.05009504 297.46219591 84.18547146 297.46380317 85.35525322 C297.46711628 88.52071372 297.4659041 91.68613629 297.46281695 94.85159588 C297.46056461 98.25994768 297.46404163 101.66829414 297.46679688 105.0766449 C297.47125535 111.75913835 297.47027776 118.44162061 297.46738423 125.12411451 C297.4651305 130.55266887 297.46481755 135.98122009 297.46590805 141.40977478 C297.46606128 142.18090099 297.46621452 142.9520272 297.46637239 143.74652088 C297.4666921 145.31279961 297.46701631 146.87907835 297.46734498 148.44535708 C297.4702 163.1499131 297.46691241 177.8544629 297.46154462 192.5590179 C297.45707656 205.19012048 297.45785249 217.82121387 297.46246338 230.45231628 C297.46780876 245.10243188 297.46992531 259.75254202 297.46685112 274.40265846 C297.46653255 275.96333949 297.46621818 277.52402051 297.46590805 279.08470154 C297.46575378 279.85268849 297.4655995 280.62067545 297.46544055 281.41193473 C297.46457528 286.83716009 297.46603848 292.26238199 297.4683876 297.68760681 C297.4711854 304.29455961 297.47044779 310.90150051 297.46510686 317.50845194 C297.46246956 320.88268342 297.46146526 324.25689505 297.46475601 327.6311264 C297.46746428 331.28069036 297.46409037 334.93019742 297.45907593 338.57975769 C297.46130665 339.65784636 297.46353737 340.73593502 297.46583569 341.84669304 C297.46322794 342.81645136 297.4606202 343.78620968 297.45793343 344.78535461 C297.45777107 345.62893084 297.45760872 346.47250706 297.45744145 347.34164619 C297.33209229 349.24723816 297.33209229 349.24723816 296.33209229 350.24723816 C296.14684436 351.61748469 296.00903369 352.99427026 295.89459229 354.37223816 C295.48045806 358.54697833 294.60586197 362.25609314 293.33209229 366.24723816 C292.67209229 366.24723816 292.01209229 366.24723816 291.33209229 366.24723816 C291.39396729 367.33005066 291.39396729 367.33005066 291.45709229 368.43473816 C291.32287923 371.45453185 290.58038609 373.51659545 289.33209229 376.24723816 C288.67209229 376.24723816 288.01209229 376.24723816 287.33209229 376.24723816 C287.33209229 377.56723816 287.33209229 378.88723816 287.33209229 380.24723816 C286.67209229 380.24723816 286.01209229 380.24723816 285.33209229 380.24723816 C285.33209229 380.90723816 285.33209229 381.56723816 285.33209229 382.24723816 C284.67209229 382.24723816 284.01209229 382.24723816 283.33209229 382.24723816 C283.18771729 382.86598816 283.04334229 383.48473816 282.89459229 384.12223816 C282.33209229 386.24723816 282.33209229 386.24723816 281.33209229 388.24723816 C280.67209229 388.24723816 280.01209229 388.24723816 279.33209229 388.24723816 C279.33209229 388.90723816 279.33209229 389.56723816 279.33209229 390.24723816 C278.67209229 390.24723816 278.01209229 390.24723816 277.33209229 390.24723816 C277.33209229 390.90723816 277.33209229 391.56723816 277.33209229 392.24723816 C276.67209229 392.24723816 276.01209229 392.24723816 275.33209229 392.24723816 C275.33209229 392.90723816 275.33209229 393.56723816 275.33209229 394.24723816 C274.67209229 394.24723816 274.01209229 394.24723816 273.33209229 394.24723816 C273.33209229 394.90723816 273.33209229 395.56723816 273.33209229 396.24723816 C272.67209229 396.24723816 272.01209229 396.24723816 271.33209229 396.24723816 C271.33209229 396.90723816 271.33209229 397.56723816 271.33209229 398.24723816 C270.67209229 398.24723816 270.01209229 398.24723816 269.33209229 398.24723816 C269.33209229 398.90723816 269.33209229 399.56723816 269.33209229 400.24723816 C268.67209229 400.24723816 268.01209229 400.24723816 267.33209229 400.24723816 C267.33209229 400.90723816 267.33209229 401.56723816 267.33209229 402.24723816 C264.33209229 404.24723816 264.33209229 404.24723816 261.33209229 404.24723816 C261.33209229 404.90723816 261.33209229 405.56723816 261.33209229 406.24723816 C260.67209229 406.24723816 260.01209229 406.24723816 259.33209229 406.24723816 C259.33209229 406.90723816 259.33209229 407.56723816 259.33209229 408.24723816 C258.01209229 408.24723816 256.69209229 408.24723816 255.33209229 408.24723816 C255.33209229 408.90723816 255.33209229 409.56723816 255.33209229 410.24723816 C254.01209229 410.24723816 252.69209229 410.24723816 251.33209229 410.24723816 C251.33209229 410.90723816 251.33209229 411.56723816 251.33209229 412.24723816 C247.82432444 413.85078917 245.1885435 414.4676068 241.33209229 414.24723816 C241.33209229 414.90723816 241.33209229 415.56723816 241.33209229 416.24723816 C240.69400635 416.3078241 240.05592041 416.36841003 239.39849854 416.43083191 C238.15906494 416.5565155 238.15906494 416.5565155 236.89459229 416.68473816 C236.07088135 416.7659491 235.24717041 416.84716003 234.39849854 416.93083191 C232.34547203 417.0365463 232.34547203 417.0365463 231.33209229 418.24723816 C228.97630417 418.35727908 226.64920291 418.40219391 224.29237366 418.40545654 C223.54653934 418.41039452 222.80070502 418.4153325 222.03226966 418.42042011 C219.51217709 418.43587665 216.99211019 418.44417902 214.47198486 418.45256042 C212.67144545 418.46213563 210.8709083 418.47214549 209.07037354 418.4825592 C204.15276343 418.50972883 199.2351437 418.5306922 194.3174994 418.55056119 C189.14222646 418.57246735 183.96698251 418.59986027 178.79173279 418.62661743 C170.05934961 418.67099364 161.32695573 418.71171954 152.59454346 418.74992371 C140.41739423 418.80320646 128.24028443 418.86309121 116.06317294 418.92431939 C106.49266328 418.97215957 96.92214362 419.01794756 87.35162354 419.06364441 C85.84935066 419.07086954 85.84935066 419.07086954 84.31672883 419.07824063 C64.12107593 419.17510426 43.92529737 419.26442461 23.72940195 419.28681934 C22.11546081 419.28887427 20.50152045 419.29173911 18.88758242 419.29551613 C7.67820956 419.32020982 -3.48748401 419.11441784 -14.66790771 418.24723816 C-14.66790771 417.58723816 -14.66790771 416.92723816 -14.66790771 416.24723816 C-15.32790771 416.24723816 -15.98790771 416.24723816 -16.66790771 416.24723816 C-16.66790771 415.58723816 -16.66790771 414.92723816 -16.66790771 414.24723816 C-17.32790771 414.24723816 -17.98790771 414.24723816 -18.66790771 414.24723816 C-18.66790771 413.58723816 -18.66790771 412.92723816 -18.66790771 412.24723816 C-19.32790771 412.24723816 -19.98790771 412.24723816 -20.66790771 412.24723816 C-20.66790771 410.92723816 -20.66790771 409.60723816 -20.66790771 408.24723816 C-21.32790771 408.24723816 -21.98790771 408.24723816 -22.66790771 408.24723816 C-22.66790771 400.32723816 -22.66790771 392.40723816 -22.66790771 384.24723816 C-22.00790771 384.24723816 -21.34790771 384.24723816 -20.66790771 384.24723816 C-20.66790771 382.92723816 -20.66790771 381.60723816 -20.66790771 380.24723816 C-20.00790771 380.24723816 -19.34790771 380.24723816 -18.66790771 380.24723816 C-18.66790771 379.58723816 -18.66790771 378.92723816 -18.66790771 378.24723816 C-18.00790771 378.24723816 -17.34790771 378.24723816 -16.66790771 378.24723816 C-16.66790771 377.58723816 -16.66790771 376.92723816 -16.66790771 376.24723816 C-15.34790771 376.24723816 -14.02790771 376.24723816 -12.66790771 376.24723816 C-12.66790771 375.58723816 -12.66790771 374.92723816 -12.66790771 374.24723816 C65.87209229 374.24723816 144.41209229 374.24723816 225.33209229 374.24723816 C225.33209229 373.58723816 225.33209229 372.92723816 225.33209229 372.24723816 C227.31209229 372.24723816 229.29209229 372.24723816 231.33209229 372.24723816 C231.33209229 371.58723816 231.33209229 370.92723816 231.33209229 370.24723816 C232.65209229 370.24723816 233.97209229 370.24723816 235.33209229 370.24723816 C235.33209229 369.58723816 235.33209229 368.92723816 235.33209229 368.24723816 C238.33209229 366.24723816 238.33209229 366.24723816 241.33209229 366.24723816 C241.33209229 365.58723816 241.33209229 364.92723816 241.33209229 364.24723816 C241.99209229 364.24723816 242.65209229 364.24723816 243.33209229 364.24723816 C243.99209229 362.26723816 244.65209229 360.28723816 245.33209229 358.24723816 C245.99209229 358.24723816 246.65209229 358.24723816 247.33209229 358.24723816 C247.62084229 357.23661316 247.90959229 356.22598816 248.20709229 355.18473816 C249.24875895 351.53890483 250.29042562 347.89307149 251.33209229 344.24723816 C251.99209229 344.24723816 252.65209229 344.24723816 253.33209229 344.24723816 C253.22754169 310.12262348 253.11777767 275.99802997 253.00097534 241.87345505 C252.98720499 237.84904239 252.97347801 233.82462958 252.95977783 229.80021667 C252.95704953 228.99899423 252.95432122 228.19777178 252.95151024 227.37226986 C252.90737861 214.38170181 252.86676453 201.391125 252.82743967 188.40054161 C252.78704131 175.08106717 252.74288776 161.76160904 252.69521374 148.44215864 C252.6658917 140.21663789 252.63953441 131.99111843 252.61691331 123.76557647 C252.60114257 118.1327821 252.58173989 112.50000771 252.55942387 106.86723549 C252.54663828 103.61250808 252.53604528 100.35779886 252.52867317 97.10305405 C252.52044874 93.58260436 252.50618268 90.06223132 252.49031067 86.54180908 C252.48884351 84.98201713 252.48884351 84.98201713 252.48734671 83.39071423 C252.48187226 82.45517317 252.47639782 81.5196321 252.47075748 80.55574131 C252.46809944 79.74200064 252.4654414 78.92825997 252.46270281 78.0898605 C252.5331268 76.22982579 252.5331268 76.22982579 251.33209229 75.24723816 C250.99875895 72.91390483 250.66542562 70.58057149 250.33209229 68.24723816 C250.00209229 67.91723816 249.67209229 67.58723816 249.33209229 67.24723816 C249.29145396 65.58106701 249.28937128 63.91335721 249.33209229 62.24723816 C248.67209229 62.24723816 248.01209229 62.24723816 247.33209229 62.24723816 C247.33209229 61.58723816 247.33209229 60.92723816 247.33209229 60.24723816 C246.67209229 60.24723816 246.01209229 60.24723816 245.33209229 60.24723816 C245.33209229 59.58723816 245.33209229 58.92723816 245.33209229 58.24723816 C244.67209229 58.24723816 244.01209229 58.24723816 243.33209229 58.24723816 C241.97822293 56.59720988 240.64531086 54.92979946 239.33209229 53.24723816 C238.67209229 52.91723816 238.01209229 52.58723816 237.33209229 52.24723816 C237.33209229 51.58723816 237.33209229 50.92723816 237.33209229 50.24723816 C236.67209229 50.24723816 236.01209229 50.24723816 235.33209229 50.24723816 C235.33209229 49.58723816 235.33209229 48.92723816 235.33209229 48.24723816 C234.52771729 48.26786316 233.72334229 48.28848816 232.89459229 48.30973816 C230.33209229 48.24723816 230.33209229 48.24723816 229.33209229 47.24723816 C228.17709229 47.08223816 227.02209229 46.91723816 225.83209229 46.74723816 C222.33209229 46.24723816 222.33209229 46.24723816 221.33209229 45.24723816 C218.32362466 45.13680312 215.33762353 45.092263 212.32829285 45.08901978 C211.37188717 45.0840818 210.41548149 45.07914382 209.43009382 45.07405621 C206.19943045 45.05859933 202.96878707 45.05029855 199.73809814 45.04191589 C197.43255942 45.03234379 195.12702248 45.02233412 192.82148743 45.01191711 C186.54076654 44.98478954 180.26003809 44.96382263 173.97929072 44.94391513 C167.423583 44.92210383 160.86789883 44.89469147 154.31221008 44.86785889 C143.30184009 44.82338805 132.29146041 44.78272989 121.28106689 44.74455261 C109.93828386 44.70521333 98.59551161 44.66379089 87.25274658 44.61955261 C86.20470522 44.6154662 86.20470522 44.6154662 85.1354913 44.61129724 C81.63048913 44.59761802 78.12548712 44.5838977 74.62048519 44.57015693 C45.52437696 44.45614379 16.42824442 44.34941897 -12.66790771 44.24723816 C-12.66790771 43.58723816 -12.66790771 42.92723816 -12.66790771 42.24723816 C-13.98790771 42.24723816 -15.30790771 42.24723816 -16.66790771 42.24723816 C-16.66790771 41.58723816 -16.66790771 40.92723816 -16.66790771 40.24723816 C-17.32790771 40.24723816 -17.98790771 40.24723816 -18.66790771 40.24723816 C-18.66790771 39.58723816 -18.66790771 38.92723816 -18.66790771 38.24723816 C-19.32790771 38.24723816 -19.98790771 38.24723816 -20.66790771 38.24723816 C-20.66790771 36.92723816 -20.66790771 35.60723816 -20.66790771 34.24723816 C-21.32790771 34.24723816 -21.98790771 34.24723816 -22.66790771 34.24723816 C-22.66790771 26.32723816 -22.66790771 18.40723816 -22.66790771 10.24723816 C-22.00790771 10.24723816 -21.34790771 10.24723816 -20.66790771 10.24723816 C-20.45134521 9.31911316 -20.45134521 9.31911316 -20.23040771 8.37223816 C-19.66790771 6.24723816 -19.66790771 6.24723816 -18.66790771 4.24723816 C-17.34790771 4.24723816 -16.02790771 4.24723816 -14.66790771 4.24723816 C-14.66790771 3.58723816 -14.66790771 2.92723816 -14.66790771 2.24723816 C-9.84998107 -0.25491864 -5.28998472 -0.02974708 0 0 Z " fill="#2E3643" transform="translate(415.66790771484375,302.7527618408203)"/>
<path d="M0 0 C1.16080078 0.05220703 2.32160156 0.10441406 3.51757812 0.15820312 C6.36620617 0.28715337 9.21441787 0.42208589 12.0625 0.5625 C12.0625 1.2225 12.0625 1.8825 12.0625 2.5625 C12.7225 2.5625 13.3825 2.5625 14.0625 2.5625 C14.0625 3.2225 14.0625 3.8825 14.0625 4.5625 C14.7225 4.5625 15.3825 4.5625 16.0625 4.5625 C16.21690082 27.34679079 16.36491688 50.13111525 16.5054636 72.91549587 C16.57087777 83.49617601 16.63833142 94.07683561 16.71069336 104.6574707 C16.77380519 113.88634455 16.83298133 123.1152341 16.88755554 132.34416252 C16.91654962 137.22460282 16.9474301 142.10501377 16.98303413 146.98541069 C17.01658154 151.59245805 17.04480972 156.19950931 17.06920624 160.80661392 C17.07898444 162.48460797 17.09059667 164.16259267 17.10433006 165.84055901 C17.19255641 176.79066336 16.83570556 187.63874855 16.0625 198.5625 C15.4025 198.5625 14.7425 198.5625 14.0625 198.5625 C14.0625 200.5425 14.0625 202.5225 14.0625 204.5625 C13.4025 204.5625 12.7425 204.5625 12.0625 204.5625 C12.0625 205.8825 12.0625 207.2025 12.0625 208.5625 C11.4025 208.5625 10.7425 208.5625 10.0625 208.5625 C10.0625 209.8825 10.0625 211.2025 10.0625 212.5625 C9.4025 212.5625 8.7425 212.5625 8.0625 212.5625 C8.0625 213.8825 8.0625 215.2025 8.0625 216.5625 C7.4025 216.5625 6.7425 216.5625 6.0625 216.5625 C6.0625 217.2225 6.0625 217.8825 6.0625 218.5625 C5.4025 218.5625 4.7425 218.5625 4.0625 218.5625 C3.918125 219.18125 3.77375 219.8 3.625 220.4375 C3.0625 222.5625 3.0625 222.5625 2.0625 224.5625 C1.4025 224.5625 0.7425 224.5625 0.0625 224.5625 C0.0625 225.2225 0.0625 225.8825 0.0625 226.5625 C-0.5975 226.5625 -1.2575 226.5625 -1.9375 226.5625 C-1.9375 227.2225 -1.9375 227.8825 -1.9375 228.5625 C-2.5975 228.5625 -3.2575 228.5625 -3.9375 228.5625 C-3.9375 229.2225 -3.9375 229.8825 -3.9375 230.5625 C-5.2575 230.5625 -6.5775 230.5625 -7.9375 230.5625 C-7.9375 231.2225 -7.9375 231.8825 -7.9375 232.5625 C-8.5975 232.5625 -9.2575 232.5625 -9.9375 232.5625 C-9.9375 233.2225 -9.9375 233.8825 -9.9375 234.5625 C-11.2575 234.5625 -12.5775 234.5625 -13.9375 234.5625 C-13.9375 235.2225 -13.9375 235.8825 -13.9375 236.5625 C-17.16541555 238.7144437 -18.22150809 238.76336443 -21.9375 238.5625 C-21.9375 239.2225 -21.9375 239.8825 -21.9375 240.5625 C-24.5775 240.5625 -27.2175 240.5625 -29.9375 240.5625 C-29.9375 241.2225 -29.9375 241.8825 -29.9375 242.5625 C-34.08331887 242.59136751 -38.22911216 242.60925327 -42.375 242.625 C-43.55900391 242.63337891 -44.74300781 242.64175781 -45.96289062 242.65039062 C-47.08759766 242.65361328 -48.21230469 242.65683594 -49.37109375 242.66015625 C-50.93428345 242.66801147 -50.93428345 242.66801147 -52.52905273 242.67602539 C-54.9375 242.5625 -54.9375 242.5625 -55.9375 241.5625 C-57.54625 241.3459375 -57.54625 241.3459375 -59.1875 241.125 C-62.45983274 240.63415009 -64.95011388 239.92040278 -67.9375 238.5625 C-67.9375 237.9025 -67.9375 237.2425 -67.9375 236.5625 C-69.2575 236.5625 -70.5775 236.5625 -71.9375 236.5625 C-71.9375 235.9025 -71.9375 235.2425 -71.9375 234.5625 C-72.55625 234.418125 -73.175 234.27375 -73.8125 234.125 C-75.9375 233.5625 -75.9375 233.5625 -77.9375 232.5625 C-77.9375 231.9025 -77.9375 231.2425 -77.9375 230.5625 C-78.5975 230.5625 -79.2575 230.5625 -79.9375 230.5625 C-79.9375 229.9025 -79.9375 229.2425 -79.9375 228.5625 C-81.2575 228.2325 -82.5775 227.9025 -83.9375 227.5625 C-83.9375 226.5725 -83.9375 225.5825 -83.9375 224.5625 C-84.5975 224.5625 -85.2575 224.5625 -85.9375 224.5625 C-85.9375 223.9025 -85.9375 223.2425 -85.9375 222.5625 C-86.5975 222.5625 -87.2575 222.5625 -87.9375 222.5625 C-87.9375 221.9025 -87.9375 221.2425 -87.9375 220.5625 C-88.5975 220.5625 -89.2575 220.5625 -89.9375 220.5625 C-89.9375 219.9025 -89.9375 219.2425 -89.9375 218.5625 C-90.5975 218.5625 -91.2575 218.5625 -91.9375 218.5625 C-92.5975 216.5825 -93.2575 214.6025 -93.9375 212.5625 C-94.5975 212.5625 -95.2575 212.5625 -95.9375 212.5625 C-95.9375 211.2425 -95.9375 209.9225 -95.9375 208.5625 C-96.5975 208.5625 -97.2575 208.5625 -97.9375 208.5625 C-97.9375 206.5825 -97.9375 204.6025 -97.9375 202.5625 C-98.5975 202.5625 -99.2575 202.5625 -99.9375 202.5625 C-99.9375 199.9225 -99.9375 197.2825 -99.9375 194.5625 C-100.5975 194.5625 -101.2575 194.5625 -101.9375 194.5625 C-101.9375 166.1825 -101.9375 137.8025 -101.9375 108.5625 C-101.2775 108.5625 -100.6175 108.5625 -99.9375 108.5625 C-100.040625 107.840625 -100.14375 107.11875 -100.25 106.375 C-99.8064435 102.38299153 -97.98254127 101.04102196 -94.9375 98.5625 C-93.9475 98.5625 -92.9575 98.5625 -91.9375 98.5625 C-91.9375 97.9025 -91.9375 97.2425 -91.9375 96.5625 C-88.50007082 96.50447302 -85.06276747 96.46889514 -81.625 96.4375 C-80.64853516 96.42074219 -79.67207031 96.40398437 -78.66601562 96.38671875 C-77.72822266 96.38027344 -76.79042969 96.37382812 -75.82421875 96.3671875 C-74.96014404 96.35671387 -74.09606934 96.34624023 -73.20581055 96.33544922 C-70.9375 96.5625 -70.9375 96.5625 -67.9375 98.5625 C-67.9375 99.2225 -67.9375 99.8825 -67.9375 100.5625 C-67.2775 100.5625 -66.6175 100.5625 -65.9375 100.5625 C-65.9375 101.2225 -65.9375 101.8825 -65.9375 102.5625 C-65.2775 102.5625 -64.6175 102.5625 -63.9375 102.5625 C-62.14333558 107.17542383 -61.63871896 111.30600433 -61.63452148 116.2043457 C-61.62608215 116.94488693 -61.61764282 117.68542816 -61.60894775 118.44841003 C-61.58330672 120.87837411 -61.57106531 123.30821717 -61.55859375 125.73828125 C-61.54241095 127.43125867 -61.52523013 129.12422681 -61.50709534 130.81718445 C-61.46152514 135.26038339 -61.42665042 139.70359476 -61.39489746 144.14691162 C-61.3428973 151.27651661 -61.27803337 158.40598636 -61.20668221 165.53542137 C-61.18379519 168.02883555 -61.16756477 170.52223223 -61.15196228 173.01570129 C-61.13856328 174.53301187 -61.12494915 176.05032057 -61.11108398 177.56762695 C-61.10847061 178.26526154 -61.10585724 178.96289612 -61.10316467 179.68167114 C-61.33742824 182.90151657 -61.33742824 182.90151657 -59.9375 185.5625 C-59.89657063 187.89547433 -59.89508277 190.22955225 -59.9375 192.5625 C-59.2775 192.5625 -58.6175 192.5625 -57.9375 192.5625 C-56.68085022 195.46850261 -55.9375 197.35854584 -55.9375 200.5625 C-54.6175 200.5625 -53.2975 200.5625 -51.9375 200.5625 C-51.9375 201.2225 -51.9375 201.8825 -51.9375 202.5625 C-51.256875 202.52125 -50.57625 202.48 -49.875 202.4375 C-46.33825832 202.58799965 -43.30426967 203.50625853 -39.9375 204.5625 C-39.9375 203.9025 -39.9375 203.2425 -39.9375 202.5625 C-37.9575 202.5625 -35.9775 202.5625 -33.9375 202.5625 C-33.9375 201.9025 -33.9375 201.2425 -33.9375 200.5625 C-33.2775 200.5625 -32.6175 200.5625 -31.9375 200.5625 C-31.9375 199.9025 -31.9375 199.2425 -31.9375 198.5625 C-31.2775 198.5625 -30.6175 198.5625 -29.9375 198.5625 C-29.9375 197.9025 -29.9375 197.2425 -29.9375 196.5625 C-29.2775 196.5625 -28.6175 196.5625 -27.9375 196.5625 C-27.9375 194.5825 -27.9375 192.6025 -27.9375 190.5625 C-27.2775 190.5625 -26.6175 190.5625 -25.9375 190.5625 C-25.94910156 189.85222656 -25.96070313 189.14195312 -25.97265625 188.41015625 C-25.98167969 187.49105469 -25.99070312 186.57195312 -26 185.625 C-26.01160156 184.70847656 -26.02320313 183.79195312 -26.03515625 182.84765625 C-25.9375 180.5625 -25.9375 180.5625 -24.9375 179.5625 C-24.92054275 177.74312081 -24.97554496 175.9230306 -25.05859375 174.10546875 C-25.10709473 172.94337891 -25.1555957 171.78128906 -25.20556641 170.58398438 C-25.26147949 169.31876953 -25.31739258 168.05355469 -25.375 166.75 C-25.78258997 156.35192702 -26.05186312 145.9703325 -26.0625 135.5625 C-26.06693115 134.45028076 -26.0713623 133.33806152 -26.07592773 132.19213867 C-26.06461534 125.63537933 -25.71350854 119.17507727 -25.16455078 112.64257812 C-24.83668976 108.19494951 -24.7910686 103.77023023 -24.8125 99.3125 C-24.80863281 98.49265625 -24.80476563 97.6728125 -24.80078125 96.828125 C-24.80672399 93.07231062 -24.94453173 89.50873323 -25.43310547 85.77294922 C-26.24815805 78.67655442 -26.12277505 71.53176129 -26.140625 64.3984375 C-26.14486607 63.24895567 -26.14486607 63.24895567 -26.14919281 62.07625198 C-26.16409473 58.02869584 -26.17338361 53.98117457 -26.17773438 49.93359375 C-26.18323695 45.76987437 -26.207328 41.60647901 -26.23570633 37.44286156 C-26.25437157 34.22227038 -26.25954015 31.00175717 -26.26107025 27.78111649 C-26.26408344 26.24620396 -26.2720666 24.71129238 -26.28525543 23.17643356 C-26.30241482 21.02801682 -26.30041336 18.88039207 -26.29394531 16.73193359 C-26.29941376 14.90400772 -26.29941376 14.90400772 -26.30499268 13.03915405 C-25.87331985 8.95532553 -24.71794512 6.23961814 -22.9375 2.5625 C-21.9475 2.5625 -20.9575 2.5625 -19.9375 2.5625 C-19.9375 1.9025 -19.9375 1.2425 -19.9375 0.5625 C-13.25985335 -0.7458923 -6.76843598 -0.3347663 0 0 Z " fill="#7140FE" transform="translate(344.9375,394.4375)"/>
<path d="M0 0 C0.78423063 -0.00256327 1.56846125 -0.00512655 2.37645644 -0.0077675 C5.00066731 -0.01270353 7.62430111 0.00378434 10.24845886 0.02018738 C12.1309457 0.02103369 14.01343353 0.02055843 15.8959198 0.01885986 C21.00505161 0.01799865 26.11397239 0.03564496 31.22305512 0.05658174 C36.56286695 0.07532741 41.90268354 0.07709732 47.24252319 0.08065796 C57.35366203 0.08998461 67.46470363 0.11460684 77.57579964 0.14470643 C89.08717019 0.17823109 100.59854536 0.19473159 112.10995257 0.20979273 C135.7892319 0.24115581 159.46842489 0.29392843 183.14762878 0.36076355 C183.14762878 1.02076355 183.14762878 1.68076355 183.14762878 2.36076355 C184.46762878 2.36076355 185.78762878 2.36076355 187.14762878 2.36076355 C187.14762878 3.02076355 187.14762878 3.68076355 187.14762878 4.36076355 C187.80762878 4.36076355 188.46762878 4.36076355 189.14762878 4.36076355 C189.14762878 5.02076355 189.14762878 5.68076355 189.14762878 6.36076355 C189.80762878 6.36076355 190.46762878 6.36076355 191.14762878 6.36076355 C191.14762878 7.68076355 191.14762878 9.00076355 191.14762878 10.36076355 C191.80762878 10.36076355 192.46762878 10.36076355 193.14762878 10.36076355 C193.26482053 14.19383524 193.33520956 18.02643963 193.39762878 21.86076355 C193.43114441 22.9384198 193.46466003 24.01607605 193.49919128 25.12638855 C193.58370567 32.05656847 192.79958169 36.4371234 189.14762878 42.36076355 C187.82762878 42.36076355 186.50762878 42.36076355 185.14762878 42.36076355 C185.14762878 43.02076355 185.14762878 43.68076355 185.14762878 44.36076355 C159.7746074 44.40743763 134.40159243 44.44272984 109.0285368 44.46438789 C97.24798843 44.47471038 85.4674667 44.48878925 73.68693542 44.51164246 C63.42173028 44.53154661 53.15654443 44.54447291 42.89132053 44.54894054 C37.45353071 44.55155297 32.01579608 44.55771344 26.57802391 44.57222366 C21.46373974 44.58576061 16.34953369 44.58999409 11.23523331 44.58697891 C9.35463474 44.58753082 7.47403366 44.59153134 5.59345055 44.5991745 C3.03265203 44.60907496 0.47215135 44.60675045 -2.08865356 44.60127258 C-2.83864996 44.60709827 -3.58864635 44.61292395 -4.36136991 44.61892617 C-8.08162806 44.59730669 -9.67184037 44.48111744 -12.85237122 42.36076355 C-12.85237122 41.70076355 -12.85237122 41.04076355 -12.85237122 40.36076355 C-13.51237122 40.36076355 -14.17237122 40.36076355 -14.85237122 40.36076355 C-14.85237122 39.04076355 -14.85237122 37.72076355 -14.85237122 36.36076355 C-15.51237122 36.36076355 -16.17237122 36.36076355 -16.85237122 36.36076355 C-16.96888847 31.98598881 -17.03973121 27.61161528 -17.10237122 23.23576355 C-17.13588684 21.99826355 -17.16940247 20.76076355 -17.20393372 19.48576355 C-17.31449655 9.2034199 -17.31449655 9.2034199 -15.14924622 5.68107605 C-10.43471022 0.91843255 -6.57452406 -0.07885135 0 0 Z " fill="#313845" transform="translate(435.8523712158203,398.6392364501953)"/>
<path d="M0 0 C0.78745975 -0.00170885 1.57491951 -0.0034177 2.38624167 -0.00517833 C5.02726042 -0.00847496 7.66802562 0.00253328 10.309021 0.01345825 C12.2012125 0.01402233 14.09340445 0.01370588 15.9855957 0.01257324 C21.12572901 0.01199859 26.26576928 0.02377112 31.40588093 0.03772116 C36.77640119 0.05020976 42.14692351 0.05139754 47.51745605 0.05377197 C57.68880926 0.05999224 67.86011955 0.07641047 78.03145385 0.09647095 C89.61052224 0.11881293 101.18959266 0.1298191 112.76867723 0.13986182 C136.5891151 0.16077621 160.40951487 0.19596282 184.22991943 0.24050903 C184.22991943 0.90050903 184.22991943 1.56050903 184.22991943 2.24050903 C185.54991943 2.24050903 186.86991943 2.24050903 188.22991943 2.24050903 C188.22991943 2.90050903 188.22991943 3.56050903 188.22991943 4.24050903 C188.88991943 4.24050903 189.54991943 4.24050903 190.22991943 4.24050903 C193.32416006 9.42825363 192.63833494 15.12190419 192.66741943 20.99050903 C192.70029053 22.14550903 192.73316162 23.30050903 192.76702881 24.49050903 C192.80783559 30.98991577 192.30481849 35.53182945 188.60125732 40.95632935 C187.22991943 42.24050903 187.22991943 42.24050903 184.22991943 42.24050903 C184.22991943 42.90050903 184.22991943 43.56050903 184.22991943 44.24050903 C120.20991943 44.24050903 56.18991943 44.24050903 -9.77008057 44.24050903 C-9.77008057 43.58050903 -9.77008057 42.92050903 -9.77008057 42.24050903 C-11.09008057 42.24050903 -12.41008057 42.24050903 -13.77008057 42.24050903 C-18.52151245 35.79614572 -18.25103124 30.11535963 -18.02008057 22.30300903 C-18.00203369 21.14220825 -17.98398682 19.98140747 -17.96539307 18.78543091 C-17.91849316 15.93626156 -17.85287116 13.08882373 -17.77008057 10.24050903 C-17.11008057 10.24050903 -16.45008057 10.24050903 -15.77008057 10.24050903 C-15.77008057 8.92050903 -15.77008057 7.60050903 -15.77008057 6.24050903 C-15.11008057 6.24050903 -14.45008057 6.24050903 -13.77008057 6.24050903 C-13.77008057 5.58050903 -13.77008057 4.92050903 -13.77008057 4.24050903 C-13.11008057 4.24050903 -12.45008057 4.24050903 -11.77008057 4.24050903 C-11.77008057 3.58050903 -11.77008057 2.92050903 -11.77008057 2.24050903 C-8.02341846 -0.19637434 -4.31258342 -0.03416287 0 0 Z " fill="#2E3644" transform="translate(436.77008056640625,490.7594909667969)"/>
<path d="M0 0 C64.02 0 128.04 0 194 0 C194 0.66 194 1.32 194 2 C195.32 2 196.64 2 198 2 C198 2.66 198 3.32 198 4 C198.66 4 199.32 4 200 4 C200 5.32 200 6.64 200 8 C200.66 8 201.32 8 202 8 C202 16.58 202 25.16 202 34 C201.34 34 200.68 34 200 34 C200 35.32 200 36.64 200 38 C199.34 38 198.68 38 198 38 C197.67 39.32 197.34 40.64 197 42 C196.01 42 195.02 42 194 42 C194 42.66 194 43.32 194 44 C129.98 44 65.96 44 0 44 C0 43.34 0 42.68 0 42 C-0.66 42 -1.32 42 -2 42 C-2 41.34 -2 40.68 -2 40 C-2.66 40 -3.32 40 -4 40 C-4 39.34 -4 38.68 -4 38 C-4.66 38 -5.32 38 -6 38 C-6 36.68 -6 35.36 -6 34 C-6.66 34 -7.32 34 -8 34 C-8.05834395 30.12506384 -8.09371201 26.25024164 -8.125 22.375 C-8.14175781 21.28058594 -8.15851563 20.18617188 -8.17578125 19.05859375 C-8.23662606 9.01920021 -8.23662606 9.01920021 -6 4 C-5.34 4 -4.68 4 -4 4 C-4 3.34 -4 2.68 -4 2 C-2.68 2 -1.36 2 0 2 C0 1.34 0 0.68 0 0 Z " fill="#2D3542" transform="translate(427,583)"/>
<path d="M0 0 C1.32 0 2.64 0 4 0 C4 0.66 4 1.32 4 2 C5.32 2 6.64 2 8 2 C8 2.66 8 3.32 8 4 C8.66 4 9.32 4 10 4 C10 4.66 10 5.32 10 6 C10.66 6 11.32 6 12 6 C12 6.66 12 7.32 12 8 C12.66 8 13.32 8 14 8 C14 8.66 14 9.32 14 10 C14.66 10 15.32 10 16 10 C16 10.66 16 11.32 16 12 C16.66 12 17.32 12 18 12 C18 12.66 18 13.32 18 14 C18.66 14 19.32 14 20 14 C20 14.66 20 15.32 20 16 C20.66 16 21.32 16 22 16 C22 16.66 22 17.32 22 18 C22.66 18 23.32 18 24 18 C24 19.32 24 20.64 24 22 C24.66 22 25.32 22 26 22 C26 22.66 26 23.32 26 24 C26.66 24 27.32 24 28 24 C28 25.32 28 26.64 28 28 C28.66 28 29.32 28 30 28 C30 29.32 30 30.64 30 32 C30.66 32 31.32 32 32 32 C32 33.32 32 34.64 32 36 C32.66 36 33.32 36 34 36 C34 37.32 34 38.64 34 40 C34.66 40 35.32 40 36 40 C36 41.98 36 43.96 36 46 C36.66 46 37.32 46 38 46 C38.06058594 46.85464844 38.12117188 47.70929688 38.18359375 48.58984375 C38.30927734 50.24693359 38.30927734 50.24693359 38.4375 51.9375 C38.51871094 53.03964844 38.59992188 54.14179688 38.68359375 55.27734375 C38.70418084 57.91109903 38.70418084 57.91109903 40 59 C40.09766155 60.48467732 40.12555479 61.97399765 40.12584114 63.46188354 C40.12975276 64.91652102 40.12975276 64.91652102 40.13374341 66.40054512 C40.13039732 68.01767812 40.13039732 68.01767812 40.12698364 69.66748047 C40.12854363 70.80285688 40.13010362 71.9382333 40.13171089 73.10801506 C40.135024 76.27347556 40.13381182 79.43889813 40.13072467 82.60435772 C40.12847233 86.01270952 40.13194935 89.42105598 40.13470459 92.82940674 C40.13916307 99.51190019 40.13818548 106.19438245 40.13529195 112.87687635 C40.13303822 118.30543072 40.13272526 123.73398193 40.13381577 129.16253662 C40.133969 129.93366283 40.13412223 130.70478904 40.13428011 131.49928272 C40.13459982 133.06556145 40.13492403 134.63184019 40.1352527 136.19811893 C40.13810772 150.90267494 40.13482013 165.60722474 40.12945233 180.31177974 C40.12498427 192.94288232 40.1257602 205.57397571 40.13037109 218.20507812 C40.13571647 232.85519373 40.13783303 247.50530386 40.13475883 262.1554203 C40.13444026 263.71610133 40.13412589 265.27678235 40.13381577 266.83746338 C40.13366149 267.60545033 40.13350721 268.37343729 40.13334826 269.16469657 C40.132483 274.58992193 40.13394619 280.01514383 40.13629532 285.44036865 C40.13909311 292.04732145 40.1383555 298.65426236 40.13301457 305.26121378 C40.13037727 308.63544526 40.12937297 312.00965689 40.13266373 315.38388824 C40.13537199 319.0334522 40.13199809 322.68295926 40.12698364 326.33251953 C40.12921436 327.4106082 40.13144509 328.48869686 40.13374341 329.59945488 C40.13113566 330.5692132 40.12852791 331.53897152 40.12584114 332.53811646 C40.12567879 333.38169268 40.12551644 334.2252689 40.12534916 335.09440804 C40 337 40 337 39 338 C38.81475208 339.37024654 38.6769414 340.7470321 38.5625 342.125 C38.14836578 346.29974017 37.27376969 350.00885498 36 354 C35.34 354 34.68 354 34 354 C34.061875 355.0828125 34.061875 355.0828125 34.125 356.1875 C33.99078695 359.20729369 33.24829381 361.26935729 32 364 C31.34 364 30.68 364 30 364 C30 365.32 30 366.64 30 368 C29.34 368 28.68 368 28 368 C28 368.66 28 369.32 28 370 C27.34 370 26.68 370 26 370 C25.855625 370.61875 25.71125 371.2375 25.5625 371.875 C25 374 25 374 24 376 C23.34 376 22.68 376 22 376 C22 376.66 22 377.32 22 378 C21.34 378 20.68 378 20 378 C20 378.66 20 379.32 20 380 C19.34 380 18.68 380 18 380 C18 380.66 18 381.32 18 382 C17.34 382 16.68 382 16 382 C16 382.66 16 383.32 16 384 C15.34 384 14.68 384 14 384 C14 384.66 14 385.32 14 386 C13.34 386 12.68 386 12 386 C12 386.66 12 387.32 12 388 C11.34 388 10.68 388 10 388 C10 388.66 10 389.32 10 390 C7 392 7 392 4 392 C4 392.66 4 393.32 4 394 C3.34 394 2.68 394 2 394 C2 394.66 2 395.32 2 396 C0.68 396 -0.64 396 -2 396 C-2 396.66 -2 397.32 -2 398 C-3.32 398 -4.64 398 -6 398 C-6 398.66 -6 399.32 -6 400 C-9.50776784 401.60355101 -12.14354879 402.22036864 -16 402 C-16 402.66 -16 403.32 -16 404 C-16.63808594 404.06058594 -17.27617188 404.12117188 -17.93359375 404.18359375 C-19.17302734 404.30927734 -19.17302734 404.30927734 -20.4375 404.4375 C-21.26121094 404.51871094 -22.08492187 404.59992188 -22.93359375 404.68359375 C-24.98662025 404.78930815 -24.98662025 404.78930815 -26 406 C-28.35578812 406.11004092 -30.68288937 406.15495575 -33.03971863 406.15821838 C-33.78555295 406.16315636 -34.53138727 406.16809434 -35.29982263 406.17318195 C-37.81991519 406.18863849 -40.3399821 406.19694086 -42.86010742 406.20532227 C-44.66064684 406.21489747 -46.46118399 406.22490733 -48.26171875 406.23532104 C-53.17932885 406.26249067 -58.09694858 406.28345404 -63.01459289 406.30332303 C-68.18986583 406.32522919 -73.36510978 406.35262211 -78.5403595 406.37937927 C-87.27274267 406.42375548 -96.00513656 406.46448138 -104.73754883 406.50268555 C-116.91469806 406.5559683 -129.09180786 406.61585305 -141.26891935 406.67708123 C-150.83942901 406.72492141 -160.40994866 406.7707094 -169.98046875 406.81640625 C-171.48274163 406.82363138 -171.48274163 406.82363138 -173.01536345 406.83100247 C-193.21101635 406.9278661 -213.40679492 407.01718645 -233.60269034 407.03958118 C-235.21663148 407.04163611 -236.83057184 407.04450095 -238.44450986 407.04827797 C-249.65388273 407.07297166 -260.8195763 406.86717968 -272 406 C-272 405.34 -272 404.68 -272 404 C-272.66 404 -273.32 404 -274 404 C-274 403.34 -274 402.68 -274 402 C-274.66 402 -275.32 402 -276 402 C-276 401.34 -276 400.68 -276 400 C-276.66 400 -277.32 400 -278 400 C-277.505 398.02 -277.505 398.02 -277 396 C-276.4225 396.78375 -275.845 397.5675 -275.25 398.375 C-272.73574414 401.3082985 -270.87162043 402.7635989 -267.00607646 403.251849 C-265.94437033 403.25314916 -265.94437033 403.25314916 -264.86121559 403.25447559 C-264.03980383 403.26030779 -263.21839206 403.26613998 -262.37208903 403.27214891 C-261.47502627 403.26836958 -260.57796352 403.26459026 -259.65371704 403.26069641 C-258.69645891 403.26452196 -257.73920077 403.26834751 -256.75293481 403.27228898 C-253.53656908 403.28262978 -250.32038151 403.27862463 -247.10400391 403.2746582 C-244.80103388 403.27900432 -242.4980653 403.28418714 -240.19509888 403.29014587 C-233.93011649 403.30356427 -227.66519433 403.30411091 -221.40020037 403.30158257 C-216.16721306 403.30051384 -210.93423799 403.30539422 -205.70125329 403.310188 C-192.63964058 403.32193056 -179.57806217 403.32105275 -166.51644723 403.31463119 C-155.19677062 403.30947297 -143.87718036 403.32068729 -132.55752082 403.33972941 C-120.92044949 403.35915429 -109.28342259 403.36706438 -97.64633501 403.36360615 C-91.11892524 403.36179678 -84.59159437 403.36439415 -78.06419754 403.37832069 C-71.9164319 403.39094496 -65.76883785 403.38891141 -59.62107468 403.37590981 C-57.37259614 403.37355371 -55.12410536 403.37624376 -52.87564087 403.38453293 C-26.4481611 403.47488054 -4.93681311 398.4126934 14.8125 379.75 C34.56200646 359.13806968 36.45533109 335.1202664 36.40405273 308.14501953 C36.40812289 305.43002422 36.41662903 302.71504651 36.42485046 300.00006104 C36.44196006 293.41789967 36.44289489 286.83583409 36.43763756 280.25365628 C36.43357996 274.8984734 36.43505819 269.54331861 36.44038582 264.18813705 C36.44113424 263.42310305 36.44188266 262.65806906 36.44265376 261.86985221 C36.4441854 260.31519938 36.44572374 258.76054656 36.44726873 257.20589374 C36.46096538 242.65913827 36.45557606 228.11243673 36.44408352 213.56568252 C36.43415389 200.2886161 36.44709217 187.01168911 36.47101771 173.73464419 C36.49546221 160.06547925 36.50500349 146.3963791 36.49836498 132.72719276 C36.49488465 125.06749851 36.49702599 117.40791139 36.51461601 109.7482338 C36.52940515 103.22797233 36.52988651 96.70789346 36.5125451 90.18763532 C36.50408731 86.86798034 36.50396106 83.54891534 36.51719666 80.2292366 C36.57974059 63.23682732 36.20438826 47.34220604 28 32 C27.53078125 31.08089844 27.0615625 30.16179687 26.578125 29.21484375 C20.51662972 18.02994175 12.55776024 9.08279854 1.80078125 2.20703125 C1.20652344 1.80871094 0.61226562 1.41039062 0 1 C0 0.67 0 0.34 0 0 Z " fill="#FCFCFC" transform="translate(673,315)"/>
<path d="M0 0 C1.32 0 2.64 0 4 0 C4 0.66 4 1.32 4 2 C4.66 2 5.32 2 6 2 C6 2.66 6 3.32 6 4 C6.66 4 7.32 4 8 4 C8.15440082 26.78429079 8.30241688 49.56861525 8.4429636 72.35299587 C8.50837777 82.93367601 8.57583142 93.51433561 8.64819336 104.0949707 C8.71130519 113.32384455 8.77048133 122.5527341 8.82505554 131.78166252 C8.85404962 136.66210282 8.8849301 141.54251377 8.92053413 146.42291069 C8.95408154 151.02995805 8.98230972 155.63700931 9.00670624 160.24411392 C9.01648444 161.92210797 9.02809667 163.60009267 9.04183006 165.27805901 C9.13005641 176.22816336 8.77320556 187.07624855 8 198 C7.34 198 6.68 198 6 198 C6 199.98 6 201.96 6 204 C5.34 204 4.68 204 4 204 C4 205.32 4 206.64 4 208 C3.34 208 2.68 208 2 208 C2 209.32 2 210.64 2 212 C1.34 212 0.68 212 0 212 C0 213.32 0 214.64 0 216 C-0.66 216 -1.32 216 -2 216 C-2 216.66 -2 217.32 -2 218 C-2.66 218 -3.32 218 -4 218 C-4.144375 218.61875 -4.28875 219.2375 -4.4375 219.875 C-5 222 -5 222 -6 224 C-6.66 224 -7.32 224 -8 224 C-8 224.66 -8 225.32 -8 226 C-8.66 226 -9.32 226 -10 226 C-10 226.66 -10 227.32 -10 228 C-10.66 228 -11.32 228 -12 228 C-12 228.66 -12 229.32 -12 230 C-13.32 230 -14.64 230 -16 230 C-16 230.66 -16 231.32 -16 232 C-16.66 232 -17.32 232 -18 232 C-18 232.66 -18 233.32 -18 234 C-19.32 234 -20.64 234 -22 234 C-22 234.66 -22 235.32 -22 236 C-25.22791555 238.1519437 -26.28400809 238.20086443 -30 238 C-30 238.66 -30 239.32 -30 240 C-32.64 240 -35.28 240 -38 240 C-38 240.66 -38 241.32 -38 242 C-42.14581887 242.02886751 -46.29161216 242.04675327 -50.4375 242.0625 C-51.62150391 242.07087891 -52.80550781 242.07925781 -54.02539062 242.08789062 C-55.15009766 242.09111328 -56.27480469 242.09433594 -57.43359375 242.09765625 C-58.99678345 242.10551147 -58.99678345 242.10551147 -60.59155273 242.11352539 C-63 242 -63 242 -64 241 C-65.60875 240.7834375 -65.60875 240.7834375 -67.25 240.5625 C-70.52233274 240.07165009 -73.01261388 239.35790278 -76 238 C-76 237.34 -76 236.68 -76 236 C-77.32 236 -78.64 236 -80 236 C-80 235.34 -80 234.68 -80 234 C-80.61875 233.855625 -81.2375 233.71125 -81.875 233.5625 C-84 233 -84 233 -86 232 C-86 231.34 -86 230.68 -86 230 C-86.66 230 -87.32 230 -88 230 C-88 229.34 -88 228.68 -88 228 C-89.32 227.67 -90.64 227.34 -92 227 C-92 226.01 -92 225.02 -92 224 C-92.66 224 -93.32 224 -94 224 C-94 223.34 -94 222.68 -94 222 C-94.66 222 -95.32 222 -96 222 C-96 221.34 -96 220.68 -96 220 C-96.66 220 -97.32 220 -98 220 C-98 219.34 -98 218.68 -98 218 C-98.66 218 -99.32 218 -100 218 C-100.66 216.02 -101.32 214.04 -102 212 C-102.66 212 -103.32 212 -104 212 C-104 210.68 -104 209.36 -104 208 C-104.66 208 -105.32 208 -106 208 C-106 206.02 -106 204.04 -106 202 C-104 205 -104 205 -102.625 207.56640625 C-94.50309275 222.54117274 -82.9896556 231.52985466 -67 237 C-52.39527953 241.23147434 -36.07263499 238.38951378 -22.9921875 231.390625 C-9.47307895 223.36020085 -1.02398487 211.98456801 3.08584595 196.86880493 C5.39014727 187.80280631 5.55272105 179.06163705 5.48583984 169.75537109 C5.48799192 167.98936686 5.49187877 166.22336403 5.49734497 164.45736694 C5.50693855 159.71411796 5.49186668 154.9712524 5.47143888 150.22804976 C5.45372718 145.24478133 5.45739553 140.26152225 5.4581604 135.27822876 C5.45629522 126.92484198 5.43902861 118.57160172 5.41162109 110.21826172 C5.38007558 100.5681935 5.36962889 90.91828486 5.3710922 81.26816881 C5.37244318 70.96608088 5.35857294 60.66405417 5.34019899 50.36198473 C5.33594193 47.40152153 5.33451747 44.44106824 5.33372116 41.48060226 C5.33171091 36.83307952 5.31949017 32.18569043 5.29938889 27.53821182 C5.29355464 25.8346412 5.29108496 24.1310552 5.29224396 22.42747498 C5.29322791 20.1006276 5.28189022 17.77415258 5.26742554 15.44735718 C5.26407385 14.14628714 5.26072216 12.84521709 5.25726891 11.50472069 C4.99736847 7.96415121 4.45849274 5.23523219 3 2 C2.01 1.67 1.02 1.34 0 1 C0 0.67 0 0.34 0 0 Z " fill="#F9F7FE" transform="translate(353,395)"/>
<path d="M0 0 C0.54269531 0.42152344 1.08539063 0.84304688 1.64453125 1.27734375 C2.35996094 1.82519531 3.07539063 2.37304688 3.8125 2.9375 C4.87404297 3.75541016 4.87404297 3.75541016 5.95703125 4.58984375 C10.38339083 7.6451321 15.01303831 7.1413966 20.17028809 7.13130188 C21.12064139 7.13341759 22.07099469 7.13553331 23.05014658 7.13771313 C26.24893729 7.14372593 29.44768869 7.14271206 32.64648438 7.1418457 C34.93446927 7.14487644 37.22245356 7.14839765 39.51043701 7.15237427 C44.44589811 7.16027165 49.38135194 7.16541141 54.31681824 7.16866493 C62.12484961 7.17457018 69.93283528 7.19110702 77.74084473 7.21000671 C80.41332242 7.21634445 83.08580014 7.22267219 85.75827789 7.22898388 C86.76018888 7.23135952 86.76018888 7.23135952 87.7823405 7.23378316 C95.38744261 7.25172332 102.99254781 7.26794639 110.59765625 7.28295898 C111.29287819 7.28433486 111.98810012 7.28571073 112.70438939 7.28712829 C123.95498791 7.30902907 135.20557518 7.31980721 146.45619124 7.32732973 C158.01529053 7.3354145 169.57427939 7.35901382 181.13332605 7.3952834 C187.61986927 7.41503422 194.106244 7.42745187 200.59281921 7.42244911 C206.69959318 7.41779691 212.80604818 7.43163998 218.91275787 7.45946121 C221.14958398 7.46636393 223.38644312 7.46650951 225.62326813 7.45926094 C240.9135131 7.41473148 253.40359848 7.84514483 265 19 C270 24.80796253 270 24.80796253 270 28 C269.34 28 268.68 28 268 28 C268 27.34 268 26.68 268 26 C267.34 26 266.68 26 266 26 C266 25.34 266 24.68 266 24 C265.34 24 264.68 24 264 24 C262.64613064 22.34997172 261.31321858 20.6825613 260 19 C259.34 18.67 258.68 18.34 258 18 C258 17.34 258 16.68 258 16 C257.34 16 256.68 16 256 16 C256 15.34 256 14.68 256 14 C255.195625 14.020625 254.39125 14.04125 253.5625 14.0625 C251 14 251 14 250 13 C248.845 12.835 247.69 12.67 246.5 12.5 C243 12 243 12 242 11 C238.99153237 10.88956496 236.00553125 10.84502484 232.99620056 10.84178162 C232.03979488 10.83684364 231.08338921 10.83190566 230.09800154 10.82681805 C226.86733817 10.81136117 223.63669478 10.80306039 220.40600586 10.79467773 C218.10046714 10.78510564 215.7949302 10.77509596 213.48939514 10.76467896 C207.20867426 10.73755138 200.9279458 10.71658448 194.64719844 10.69667697 C188.09149071 10.67486567 181.53580655 10.64745331 174.9801178 10.62062073 C163.9697478 10.57614989 152.95936812 10.53549173 141.94897461 10.49731445 C130.60619158 10.45797517 119.26341932 10.41655273 107.9206543 10.37231445 C106.87261293 10.36822804 106.87261293 10.36822804 105.80339902 10.36405908 C102.29839685 10.35037986 98.79339483 10.33665954 95.2883929 10.32291877 C66.19228467 10.20890563 37.09615214 10.10218081 8 10 C8 9.34 8 8.68 8 8 C6.68 8 5.36 8 4 8 C4 7.34 4 6.68 4 6 C3.34 6 2.68 6 2 6 C2 5.34 2 4.68 2 4 C1.34 4 0.68 4 0 4 C0 2.68 0 1.36 0 0 Z " fill="#FDFDFD" transform="translate(395,337)"/>
<path d="M0 0 C1.32 0 2.64 0 4 0 C4 0.66 4 1.32 4 2 C4.66 2 5.32 2 6 2 C9.09424063 7.18774459 8.4084155 12.88139516 8.4375 18.75 C8.47037109 19.905 8.50324219 21.06 8.53710938 22.25 C8.57791615 28.74940674 8.07489906 33.29132042 4.37133789 38.71582031 C3 40 3 40 0 40 C0 40.66 0 41.32 0 42 C-64.02 42 -128.04 42 -194 42 C-194 41.34 -194 40.68 -194 40 C-195.32 40 -196.64 40 -198 40 C-202.75143188 33.55563668 -202.48095067 27.87485059 -202.25 20.0625 C-202.23195313 18.90169922 -202.21390625 17.74089844 -202.1953125 16.54492188 C-202.14841259 13.69575253 -202.08279059 10.84831469 -202 8 C-201.67 8 -201.34 8 -201 8 C-200.9906543 8.63502441 -200.98130859 9.27004883 -200.97167969 9.92431641 C-200.91771267 12.825308 -200.83411873 15.72473244 -200.75 18.625 C-200.73582031 19.62402344 -200.72164063 20.62304688 -200.70703125 21.65234375 C-200.51234004 27.5320184 -200.14032476 31.47419673 -196 36 C-191.89042291 39.09559048 -188.36623137 39.42829907 -183.37782288 39.38095093 C-182.61824341 39.3856309 -181.85866394 39.39031087 -181.07606691 39.39513266 C-178.53498918 39.40708306 -175.99445072 39.39762539 -173.45336914 39.38818359 C-171.62987453 39.39224931 -169.80638238 39.3975912 -167.9828949 39.40411377 C-163.03247137 39.41779408 -158.08223534 39.41248548 -153.13180852 39.40297651 C-147.95093991 39.3953825 -142.77008738 39.40242492 -137.58921814 39.40713501 C-128.88765582 39.41259379 -120.18616987 39.40539822 -111.48461914 39.39111328 C-101.42633663 39.37479168 -91.3682366 39.38007125 -81.30995852 39.3965925 C-72.67372611 39.41020996 -64.03754862 39.41212559 -55.40130895 39.40427649 C-50.24350744 39.39960076 -45.08579167 39.39897231 -39.92799568 39.40888596 C-35.07785955 39.41755691 -30.22795844 39.41153126 -25.37784767 39.39420319 C-23.59849182 39.39023883 -21.81911617 39.39137153 -20.03976822 39.39799118 C-17.60929938 39.40619896 -15.17958185 39.39589471 -12.74916077 39.38095093 C-12.04633203 39.38764309 -11.3435033 39.39433526 -10.61937672 39.40123022 C-6.03169193 39.34658349 -2.89665623 38.41180625 1 36 C5.05658644 30.64839337 4.48017471 24.42448413 4.4375 18 C4.45748047 16.93265625 4.47746094 15.8653125 4.49804688 14.765625 C4.49417728 8.54331353 4.15859162 4.74326489 0 0 Z " fill="#FCFCFC" transform="translate(621,493)"/>
<path d="M0 0 C1.32 0 2.64 0 4 0 C4 0.66 4 1.32 4 2 C4.66 2 5.32 2 6 2 C6 2.66 6 3.32 6 4 C6.66 4 7.32 4 8 4 C8 5.32 8 6.64 8 8 C8.66 8 9.32 8 10 8 C10.11719175 11.83307169 10.18758077 15.66567608 10.25 19.5 C10.28351563 20.57765625 10.31703125 21.6553125 10.3515625 22.765625 C10.43607689 29.69580492 9.65195291 34.07635985 6 40 C4.68 40 3.36 40 2 40 C2 40.66 2 41.32 2 42 C-23.37302138 42.04667408 -48.74603636 42.08196629 -74.11909199 42.10362434 C-85.89964036 42.11394683 -97.68016209 42.1280257 -109.46069336 42.15087891 C-119.7258985 42.17078306 -129.99108436 42.18370936 -140.25630826 42.18817699 C-145.69409808 42.19078942 -151.1318327 42.19694989 -156.56960487 42.21146011 C-161.68388904 42.22499706 -166.79809509 42.22923054 -171.91239548 42.22621536 C-173.79299404 42.22676727 -175.67359512 42.23076779 -177.55417824 42.23841095 C-180.11497675 42.24831141 -182.67547743 42.2459869 -185.23628235 42.24050903 C-185.98627874 42.24633472 -186.73627514 42.2521604 -187.50899869 42.25816262 C-191.22925685 42.23654314 -192.81946916 42.1203539 -196 40 C-196 39.34 -196 38.68 -196 38 C-196.66 38 -197.32 38 -198 38 C-198 36.68 -198 35.36 -198 34 C-198.66 34 -199.32 34 -200 34 C-200 25.09 -200 16.18 -200 7 C-199.34 6.67 -198.68 6.34 -198 6 C-198.02094727 6.72590332 -198.04189453 7.45180664 -198.06347656 8.19970703 C-198.1469365 11.50799555 -198.19875539 14.81606211 -198.25 18.125 C-198.28351563 19.26710938 -198.31703125 20.40921875 -198.3515625 21.5859375 C-198.4898142 30.12636668 -198.4898142 30.12636668 -194 37 C-190.36462747 39.46356232 -186.65202253 39.28304521 -182.41542053 39.26069641 C-181.64782282 39.26452196 -180.8802251 39.26834751 -180.08936685 39.27228898 C-177.51531894 39.28261405 -174.9414943 39.27862779 -172.36743164 39.2746582 C-170.52275892 39.27900494 -168.67808802 39.28418796 -166.8334198 39.29014587 C-161.8210638 39.30355099 -156.80878314 39.30411287 -151.79641271 39.30158257 C-147.61386965 39.30051392 -143.43134191 39.30539351 -139.24880213 39.310188 C-129.38273472 39.32128835 -119.51670539 39.32171757 -109.65063477 39.31567383 C-99.46796148 39.30963212 -89.28542631 39.32194886 -79.10277659 39.3432439 C-70.36382765 39.36084862 -61.62492272 39.36686305 -52.8859567 39.36360615 C-47.6650072 39.3617914 -42.44415621 39.36444865 -37.22322273 39.37832069 C-32.3140209 39.39087609 -27.40503469 39.38897663 -22.49583626 39.37590981 C-20.69348071 39.3735395 -18.8911101 39.3762949 -17.08877182 39.38453293 C-14.62945064 39.39496384 -12.17085786 39.38692952 -9.71156311 39.3742218 C-8.99735752 39.38159609 -8.28315192 39.38897037 -7.54730374 39.39656812 C-3.18544927 39.34911119 -0.49829904 38.61536142 3 36 C7.40655723 31.43858358 6.47665319 26.11187903 6.4375 20.125 C6.45748047 19.04863281 6.47746094 17.97226562 6.49804688 16.86328125 C6.49327481 9.12299477 5.5007719 5.5007719 0 0 Z " fill="#E6E7E9" transform="translate(619,401)"/>
<path d="M0 0 C1.65 0 3.3 0 5 0 C5 0.66 5 1.32 5 2 C6.32 2 7.64 2 9 2 C9 2.66 9 3.32 9 4 C9.66 4 10.32 4 11 4 C11 5.32 11 6.64 11 8 C11.66 8 12.32 8 13 8 C13 16.58 13 25.16 13 34 C12.34 34 11.68 34 11 34 C11 35.32 11 36.64 11 38 C10.34 38 9.68 38 9 38 C8.67 39.32 8.34 40.64 8 42 C7.01 42 6.02 42 5 42 C5 42.66 5 43.32 5 44 C-59.02 44 -123.04 44 -189 44 C-189 43.34 -189 42.68 -189 42 C-189.66 42 -190.32 42 -191 42 C-191 41.34 -191 40.68 -191 40 C-191.66 40 -192.32 40 -193 40 C-193 39.34 -193 38.68 -193 38 C-193.66 38 -194.32 38 -195 38 C-194.67 36.68 -194.34 35.36 -194 34 C-193.443125 34.78375 -192.88625 35.5675 -192.3125 36.375 C-189.01615851 40.11679304 -186.44960097 40.89354718 -181.4966898 41.25726891 C-180.12379669 41.27080313 -178.75076944 41.27345665 -177.37782288 41.26742554 C-176.23845367 41.27422221 -176.23845367 41.27422221 -175.07606691 41.28115618 C-172.53510552 41.29379958 -169.99435848 41.29217987 -167.45336914 41.29052734 C-165.62987493 41.29651256 -163.80638325 41.30331809 -161.9828949 41.31088257 C-157.03251922 41.3285486 -152.08221268 41.33323815 -147.13180852 41.33451414 C-142.99901488 41.33641376 -138.86623732 41.34377185 -134.73344988 41.35085833 C-124.98383133 41.3671415 -115.23424972 41.37202728 -105.48461914 41.37060547 C-95.42630939 41.36940342 -85.36821401 41.39051798 -75.30995852 41.4220928 C-66.67373172 41.44823777 -58.03757503 41.45897354 -49.40130895 41.45769465 C-44.2434612 41.45718458 -39.08580403 41.46289312 -33.92799568 41.48405075 C-29.07782637 41.50340363 -24.22803007 41.50357782 -19.37784767 41.48901749 C-17.59848232 41.48692476 -15.81909379 41.49165788 -14.03976822 41.5037384 C-11.60912666 41.51917144 -9.17977448 41.50989665 -6.74916077 41.49447632 C-6.04633203 41.50476344 -5.3435033 41.51505057 -4.61937672 41.52564943 C0.34889573 41.45607281 3.15802691 40.0854292 7 37 C10.27284298 32.394453 9.32851447 26.47218644 9.3125 21.0625 C9.32861328 19.97775391 9.34472656 18.89300781 9.36132812 17.77539062 C9.36229492 16.20241211 9.36229492 16.20241211 9.36328125 14.59765625 C9.36626221 13.64383057 9.36924316 12.69000488 9.37231445 11.70727539 C8.92665125 8.46664638 7.93931098 6.61822515 6 4 C2.93319201 2.17370206 2.93319201 2.17370206 0 1 C0 0.67 0 0.34 0 0 Z " fill="#FCFCFC" transform="translate(616,583)"/>
<path d="M0 0 C0.66 0 1.32 0 2 0 C2.04667687 23.41726347 2.08196766 46.83451998 2.10362434 70.25182056 C2.11394624 81.12435776 2.12802398 91.99686609 2.15087891 102.86938477 C2.17078487 112.34352423 2.18370979 121.81764279 2.18817699 131.29180259 C2.19078911 136.31040928 2.19694763 141.32895616 2.21146011 146.34754372 C2.22499992 151.06785721 2.22922996 155.78808606 2.22621536 160.50841713 C2.22676714 162.2438859 2.23076598 163.9793574 2.23841095 165.71480942 C2.24831592 168.07855821 2.24598529 170.44198458 2.24050903 172.80574036 C2.24633472 173.49737253 2.2521604 174.18900469 2.25816262 174.90159541 C2.23547619 178.50777389 2.06428325 179.90357513 0 183 C0.00785522 182.1495813 0.00785522 182.1495813 0.01586914 181.28198242 C0.09391776 171.46267564 0.13118692 161.67740898 -0.5 151.875 C-1.00224959 143.79079764 -1.11220017 135.72409415 -1.125 127.625 C-1.12951172 126.47241699 -1.13402344 125.31983398 -1.13867188 124.13232422 C-1.12708836 117.39940803 -0.79372044 110.76589285 -0.22705078 104.05810547 C0.10261002 99.61796436 0.14639599 95.20036552 0.125 90.75 C0.12886719 89.93015625 0.13273437 89.1103125 0.13671875 88.265625 C0.13078095 84.51293515 -0.00586223 80.95572416 -0.5 77.22363281 C-1.32377216 70.05347429 -1.14370125 62.83165681 -1.1328125 55.625 C-1.13348705 54.04842107 -1.13445833 52.47184225 -1.13571167 50.89526367 C-1.13717809 47.61066689 -1.13506591 44.32609749 -1.13037109 41.04150391 C-1.12463664 36.82350523 -1.12798275 32.60556968 -1.13394356 28.38757324 C-1.13754572 25.14149493 -1.13641284 21.89543178 -1.13381577 18.64935303 C-1.13314748 17.09275302 -1.1339715 15.53615164 -1.13629532 13.97955322 C-1.13882023 11.81575831 -1.13498534 9.65206829 -1.12939453 7.48828125 C-1.12859894 6.25634033 -1.12780334 5.02439941 -1.12698364 3.75512695 C-1 1 -1 1 0 0 Z " fill="#A485FD" transform="translate(320,403)"/>
<path d="M0 0 C24.98182033 -0.11668628 49.96359996 -0.20491607 74.9456377 -0.25906086 C86.54466156 -0.28486697 98.14351631 -0.32006351 109.74243164 -0.37719727 C119.84942458 -0.4269585 129.95629509 -0.45927349 140.06340712 -0.47044247 C145.41748975 -0.47697356 150.77122205 -0.49237342 156.12519264 -0.52865028 C161.16079267 -0.56249472 166.19589685 -0.57307638 171.23159981 -0.56553841 C173.08319541 -0.56691814 174.93480696 -0.57691924 176.78630447 -0.59602737 C179.30821056 -0.62078572 181.82822716 -0.6149695 184.35017395 -0.60127258 C185.0884975 -0.61583679 185.82682105 -0.630401 186.58751804 -0.64540654 C188.63232136 -0.61523914 188.63232136 -0.61523914 192 0 C194.32428575 2.77560519 195.34461003 5.46089416 196 9 C195.21922592 8.02594208 194.43845184 7.05188416 193.63401794 6.04830933 C187.44611001 0.81405569 178.51016148 2.17102511 170.85571289 2.22705078 C168.99262209 2.21887614 167.12954124 2.20807152 165.26647949 2.19483948 C160.21932755 2.16642624 155.17282869 2.17474798 150.12564397 2.18970728 C144.84715684 2.1990911 139.56882868 2.17463308 134.29039001 2.15377808 C124.2997182 2.11944032 114.30927529 2.11550005 104.31855625 2.12250316 C92.94248279 2.12899565 81.56657005 2.10156695 70.19054425 2.07130075 C46.7936798 2.00981213 23.39693594 1.9908834 0 2 C0 1.34 0 0.68 0 0 Z " fill="#1F2737" transform="translate(429,491)"/>
<path d="M0 0 C5.625 -0.25 5.625 -0.25 9 2 C9 2.66 9 3.32 9 4 C9.66 4 10.32 4 11 4 C11 4.66 11 5.32 11 6 C11.66 6 12.32 6 13 6 C14.79416442 10.61292383 15.29878104 14.74350433 15.30297852 19.6418457 C15.31141785 20.38238693 15.31985718 21.12292816 15.32855225 21.88591003 C15.35419328 24.31587411 15.36643469 26.74571717 15.37890625 29.17578125 C15.39508905 30.86875867 15.41226987 32.56172681 15.43040466 34.25468445 C15.47597486 38.69788339 15.51084958 43.14109476 15.54260254 47.58441162 C15.5946027 54.71401661 15.65946663 61.84348636 15.73081779 68.97292137 C15.75370481 71.46633555 15.76993523 73.95973223 15.78553772 76.45320129 C15.79893672 77.97051187 15.81255085 79.48782057 15.82641602 81.00512695 C15.82902939 81.70276154 15.83164276 82.40039612 15.83433533 83.11917114 C15.60007176 86.33901657 15.60007176 86.33901657 17 89 C17.04092937 91.33297433 17.04241723 93.66705225 17 96 C17.66 96 18.32 96 19 96 C20.25664978 98.90600261 21 100.79604584 21 104 C22.32 104 23.64 104 25 104 C25 104.66 25 105.32 25 106 C26.65 106 28.3 106 30 106 C30.495 106.99 30.495 106.99 31 108 C26.08440335 108.59946301 23.39982115 107.56789248 19.609375 104.6328125 C14.24915733 99.1945334 12.87857899 92.18050208 12.84228516 84.82568359 C12.83466408 83.73480438 12.83466408 83.73480438 12.82688904 82.62188721 C12.81619082 81.04227272 12.80756848 79.46264313 12.80076981 77.88300705 C12.78895982 75.37664704 12.76949893 72.87045772 12.74765015 70.36416626 C12.68612395 63.23779043 12.63211745 56.11143037 12.59863281 48.98486328 C12.57759314 44.62405082 12.54221096 40.2635472 12.49787521 35.90291214 C12.48378279 34.24690024 12.47500816 32.59083366 12.47182083 30.93476486 C13.01474557 17.32968744 13.01474557 17.32968744 7.58389282 5.43539429 C5.21821905 3.38486412 2.6023747 1.73491646 0 0 Z " fill="#FAF8FE" transform="translate(268,491)"/>
<path d="M0 0 C1.32 0 2.64 0 4 0 C4 0.66 4 1.32 4 2 C5.32 2 6.64 2 8 2 C8 2.66 8 3.32 8 4 C8.66 4 9.32 4 10 4 C10 4.66 10 5.32 10 6 C10.66 6 11.32 6 12 6 C12 6.66 12 7.32 12 8 C12.66 8 13.32 8 14 8 C14 8.66 14 9.32 14 10 C14.66 10 15.32 10 16 10 C16 10.66 16 11.32 16 12 C16.66 12 17.32 12 18 12 C18 12.66 18 13.32 18 14 C18.66 14 19.32 14 20 14 C20 14.66 20 15.32 20 16 C20.66 16 21.32 16 22 16 C22 16.66 22 17.32 22 18 C22.66 18 23.32 18 24 18 C24 19.32 24 20.64 24 22 C24.66 22 25.32 22 26 22 C26 22.66 26 23.32 26 24 C26.66 24 27.32 24 28 24 C28 25.32 28 26.64 28 28 C28.66 28 29.32 28 30 28 C30 29.32 30 30.64 30 32 C30.66 32 31.32 32 32 32 C32 33.32 32 34.64 32 36 C32.66 36 33.32 36 34 36 C34 37.32 34 38.64 34 40 C34.66 40 35.32 40 36 40 C36 41.98 36 43.96 36 46 C36.66 46 37.32 46 38 46 C38 49.3 38 52.6 38 56 C37.01 56.495 37.01 56.495 36 57 C35.75765625 55.94941406 35.5153125 54.89882813 35.265625 53.81640625 C33.46958202 46.21155593 31.70749265 38.93301126 28 32 C27.53078125 31.08089844 27.0615625 30.16179687 26.578125 29.21484375 C20.51662972 18.02994175 12.55776024 9.08279854 1.80078125 2.20703125 C0.90939453 1.60955078 0.90939453 1.60955078 0 1 C0 0.67 0 0.34 0 0 Z " fill="#F6F6F7" transform="translate(673,315)"/>
<path d="M0 0 C1.65 0 3.3 0 5 0 C5 0.66 5 1.32 5 2 C6.32 2 7.64 2 9 2 C9 2.66 9 3.32 9 4 C9.66 4 10.32 4 11 4 C11 5.32 11 6.64 11 8 C11.66 8 12.32 8 13 8 C13 16.58 13 25.16 13 34 C11.02 34.495 11.02 34.495 9 35 C9.01571045 34.23856689 9.0314209 33.47713379 9.04760742 32.69262695 C9.11008453 29.2326606 9.14903172 25.7728131 9.1875 22.3125 C9.21263672 21.11431641 9.23777344 19.91613281 9.26367188 18.68164062 C9.27333984 17.52470703 9.28300781 16.36777344 9.29296875 15.17578125 C9.3086792 14.11270752 9.32438965 13.04963379 9.34057617 11.9543457 C8.94755731 8.54508317 8.05759773 6.72642906 6 4 C2.93319201 2.17370206 2.93319201 2.17370206 0 1 C0 0.67 0 0.34 0 0 Z " fill="#F8F8F9" transform="translate(616,583)"/>
<path d="M0 0 C1.32 0 2.64 0 4 0 C4 0.66 4 1.32 4 2 C4.66 2 5.32 2 6 2 C6 2.66 6 3.32 6 4 C6.66 4 7.32 4 8 4 C8 5.32 8 6.64 8 8 C8.66 8 9.32 8 10 8 C10 15.92 10 23.84 10 32 C8.68 32.66 7.36 33.32 6 34 C6.02094727 33.24380371 6.04189453 32.48760742 6.06347656 31.70849609 C6.14690585 28.264134 6.19874624 24.81998493 6.25 21.375 C6.28351562 20.18519531 6.31703125 18.99539063 6.3515625 17.76953125 C6.48134754 9.07150165 6.48134754 9.07150165 2 2 C1.34 1.34 0.68 0.68 0 0 Z " fill="#E9E9EC" transform="translate(619,401)"/>
<path d="M0 0 C1.32 0 2.64 0 4 0 C4 0.66 4 1.32 4 2 C4.66 2 5.32 2 6 2 C8.56780471 5.8415976 8.22688882 9.8139175 8.125 14.25 C8.11597656 14.99507813 8.10695313 15.74015625 8.09765625 16.5078125 C8.07418358 18.33868059 8.03831525 20.16938238 8 22 C7.34 22 6.68 22 6 22 C6 23.65 6 25.3 6 27 C5.67 27 5.34 27 5 27 C4.9906543 26.39526855 4.98130859 25.79053711 4.97167969 25.16748047 C4.91768278 22.4025212 4.83409606 19.63920094 4.75 16.875 C4.73582031 15.92367188 4.72164062 14.97234375 4.70703125 13.9921875 C4.50098567 8.05807483 3.85617691 4.58113817 0 0 Z " fill="#E4E5E7" transform="translate(621,493)"/>
<path d="M0 0 C1.26758268 2.53516537 1.05200276 4.18492568 0.95703125 7.015625 C0.93576172 8.01980469 0.91449219 9.02398437 0.89257812 10.05859375 C0.83957628 12.17091128 0.77464596 14.28296623 0.69726562 16.39453125 C0.5932665 22.42648065 0.67303925 26.36557757 5 31 C7.06076774 32.50518123 7.06076774 32.50518123 9.25 33.375 C10.30960937 33.85066406 10.30960937 33.85066406 11.390625 34.3359375 C12.18726563 34.66464844 12.18726563 34.66464844 13 35 C13 35.33 13 35.66 13 36 C6.375 36.25 6.375 36.25 3 34 C3 33.34 3 32.68 3 32 C2.34 32 1.68 32 1 32 C1 30.68 1 29.36 1 28 C0.34 28 -0.32 28 -1 28 C-1.02886338 23.52084672 -1.04675187 19.04171709 -1.0625 14.5625 C-1.07087891 13.28310547 -1.07925781 12.00371094 -1.08789062 10.68554688 C-1.09111328 9.47060547 -1.09433594 8.25566406 -1.09765625 7.00390625 C-1.10289307 5.87799072 -1.10812988 4.7520752 -1.11352539 3.59204102 C-1 1 -1 1 0 0 Z " fill="#E9EAEC" transform="translate(420,407)"/>
<path d="M0 0 C6.35216707 2.6874553 10.5985258 7.11283312 14 13 C14 13.66 14 14.32 14 15 C13.34 15 12.68 15 12 15 C12 14.34 12 13.68 12 13 C11.34 13 10.68 13 10 13 C10 12.34 10 11.68 10 11 C9.34 11 8.68 11 8 11 C6.64613064 9.34997172 5.31321858 7.6825613 4 6 C3.34 5.67 2.68 5.34 2 5 C2 4.34 2 3.68 2 3 C1.34 3 0.68 3 0 3 C0 2.01 0 1.02 0 0 Z " fill="#F0F0F2" transform="translate(651,350)"/>
<path d="M0 0 C0.625 1.8125 0.625 1.8125 1 4 C0.01 5.485 0.01 5.485 -1 7 C-2.32 7 -3.64 7 -5 7 C-5 7.66 -5 8.32 -5 9 C-7.31 9 -9.62 9 -12 9 C-12.33 8.34 -12.66 7.68 -13 7 C-11.783125 6.5875 -10.56625 6.175 -9.3125 5.75 C-5.63264526 4.3839438 -2.93081636 2.65605232 0 0 Z " fill="#F8F8F8" transform="translate(626,434)"/>
<path d="M0 0 C-0.62648438 0.09796875 -1.25296875 0.1959375 -1.8984375 0.296875 C-3.12433594 0.52117187 -3.12433594 0.52117187 -4.375 0.75 C-5.18710937 0.88921875 -5.99921875 1.0284375 -6.8359375 1.171875 C-9.17709092 1.81749261 -9.17709092 1.81749261 -10.2890625 4.078125 C-10.52367187 4.71234375 -10.75828125 5.3465625 -11 6 C-11.66 6 -12.32 6 -13 6 C-13.33 6.99 -13.66 7.98 -14 9 C-15 8 -15 8 -15.0625 5.4375 C-15.041875 4.633125 -15.02125 3.82875 -15 3 C-13.68 2.67 -12.36 2.34 -11 2 C-11 1.34 -11 0.68 -11 0 C-6.97959015 -0.69584017 -3.91736581 -1.1700097 0 0 Z " fill="#8C65FE" transform="translate(336,395)"/>
<path d="M0 0 C0.33 0 0.66 0 1 0 C1.33 4.95 1.66 9.9 2 15 C2.33 15 2.66 15 3 15 C3 17.31 3 19.62 3 22 C1.68 22.33 0.36 22.66 -1 23 C-0.67 15.41 -0.34 7.82 0 0 Z " fill="#B9BBC1" transform="translate(626,595)"/>
<path d="M0 0 C0.66 0 1.32 0 2 0 C2.671875 1.734375 2.671875 1.734375 3 4 C1.890625 6.140625 1.890625 6.140625 0.25 8.25 C-0.28109375 8.95640625 -0.8121875 9.6628125 -1.359375 10.390625 C-3 12 -3 12 -6 12 C-6 11.34 -6 10.68 -6 10 C-5.34 10 -4.68 10 -4 10 C-4 9.34 -4 8.68 -4 8 C-3.34 8 -2.68 8 -2 8 C-2 7.34 -2 6.68 -2 6 C-1.34 6 -0.68 6 0 6 C0 4.02 0 2.04 0 0 Z " fill="#A889FE" transform="translate(317,585)"/>
<path d="M0 0 C0.66 0 1.32 0 2 0 C2 0.66 2 1.32 2 2 C2.66 2 3.32 2 4 2 C4 3.32 4 4.64 4 6 C4.66 6 5.32 6 6 6 C6 7.32 6 8.64 6 10 C5.34 10 4.68 10 4 10 C0 3.375 0 3.375 0 0 Z " fill="#EDEEEE" transform="translate(697,337)"/>
<path d="M0 0 C0.94875 0.04125 1.8975 0.0825 2.875 0.125 C-0.00587546 2.52572955 -2.68904834 4.59791037 -6.125 6.125 C-5.28810868 1.94054341 -4.61542241 0.1846169 0 0 Z " fill="#74767D" transform="translate(427.125,400.875)"/>
<path d="M0 0 C1.15224028 0.92961422 2.29659176 1.8690125 3.4375 2.8125 C4.07558594 3.33457031 4.71367187 3.85664062 5.37109375 4.39453125 C7 6 7 6 8 9 C6.68 8.67 5.36 8.34 4 8 C4 7.01 4 6.02 4 5 C3.34 5 2.68 5 2 5 C2 4.34 2 3.68 2 3 C1.34 3 0.68 3 0 3 C0 2.01 0 1.02 0 0 Z " fill="#EEE8FE" transform="translate(257,614)"/>
<path d="M0 0 C1.33897583 0.95043374 2.67105427 1.91059147 4 2.875 C5.11375 3.67550781 5.11375 3.67550781 6.25 4.4921875 C6.8275 4.98976563 7.405 5.48734375 8 6 C8 6.66 8 7.32 8 8 C6.68 8 5.36 8 4 8 C4 7.34 4 6.68 4 6 C3.34 6 2.68 6 2 6 C2 5.34 2 4.68 2 4 C1.34 4 0.68 4 0 4 C0 2.68 0 1.36 0 0 Z " fill="#F5F5F6" transform="translate(395,337)"/>
<path d="M0 0 C0.99 0 1.98 0 3 0 C1.60746468 3.48133831 0.36823784 4.47886033 -3 6 C-3.33 6.66 -3.66 7.32 -4 8 C-4 6.68 -4 5.36 -4 4 C-3.34 4 -2.68 4 -2 4 C-2 3.34 -2 2.68 -2 2 C-1.34 2 -0.68 2 0 2 C0 1.34 0 0.68 0 0 Z " fill="#888A91" transform="translate(399,679)"/>
</svg>
